<?xml version="1.0" standalone="no"?>
<!DOCTYPE svg PUBLIC "-//W3C//DTD SVG 20010904//EN"
 "http://www.w3.org/TR/2001/REC-SVG-20010904/DTD/svg10.dtd">
<svg version="1.0" xmlns="http://www.w3.org/2000/svg"
 width="400.000000pt" height="400.000000pt" viewBox="0 0 400.000000 400.000000"
 preserveAspectRatio="xMidYMid meet">

<g transform="translate(0.000000,400.000000) scale(0.100000,-0.100000)"
fill="#000000" stroke="none">
<path d="M1549 2243 c-63 -33 -107 -89 -114 -148 -5 -41 -1 -39 9 5 3 14 15
40 26 59 l21 34 29 -28 c28 -26 28 -29 15 -56 -8 -15 -15 -35 -15 -44 0 -8 -9
-15 -20 -15 -25 0 -25 16 0 65 11 21 18 41 15 43 -6 6 -44 -77 -45 -95 0 -7
-9 -13 -20 -13 -44 0 -12 -117 46 -172 120 -112 329 -55 374 103 23 81 3 156
-60 220 -72 75 -166 90 -261 42z m96 -3 c0 -8 -14 -17 -32 -21 -18 -3 -44 -14
-59 -24 -17 -11 -29 -14 -36 -7 -15 15 -1 32 46 53 46 21 81 21 81 -1z m76 8
c57 -19 81 -38 68 -54 -10 -12 -13 -12 -23 0 -6 7 -29 17 -50 21 -30 5 -36 9
-25 17 11 7 9 9 -8 5 -16 -3 -23 0 -23 9 0 17 16 18 61 2z m12 -57 c5 -5 6
-14 3 -19 -10 -17 -76 8 -76 29 0 15 5 16 32 8 17 -5 36 -13 41 -18z m-83 6
c0 -11 -52 -35 -89 -40 -28 -4 -21 21 11 36 40 20 78 22 78 4z m194 -59 c30
-61 34 -91 9 -86 -9 2 -21 18 -25 37 -5 18 -16 44 -24 57 -15 22 -12 44 6 44
4 0 20 -23 34 -52z m-194 17 c0 -9 -12 -20 -27 -26 -50 -19 -69 11 -19 31 32
13 46 12 46 -5z m55 3 c25 -11 30 -34 7 -32 -7 1 -21 2 -32 3 -13 0 -20 8 -20
21 0 23 9 25 45 8z m79 -30 c22 -19 36 -41 36 -55 0 -37 -28 -28 -36 11 -3 19
-12 37 -20 40 -12 5 -12 2 -3 -15 6 -11 7 -24 3 -27 -4 -4 -9 -1 -11 6 -3 6
-12 12 -20 12 -14 0 -14 3 1 19 10 11 15 25 11 30 -11 19 2 12 39 -21z m-211
-16 c3 -4 -6 -20 -19 -35 -17 -20 -24 -24 -24 -12 0 35 30 69 43 47z m77 -1
c0 -12 -29 -23 -41 -15 -5 3 -7 10 -4 15 8 12 45 12 45 0z m45 -1 c11 -18 -5
-31 -21 -16 -8 8 -14 17 -14 20 0 10 28 7 35 -4z m-22 -62 c4 -13 1 -26 -6
-30 -19 -12 -27 -9 -21 7 4 9 0 15 -10 15 -16 0 -21 12 -9 23 14 15 41 6 46
-15z m-114 -5 c-2 -10 2 -28 9 -39 9 -17 9 -24 -2 -33 -11 -9 -15 -5 -19 17
-6 28 0 72 10 72 2 0 3 -8 2 -17z m-87 -21 c3 -12 -2 -24 -13 -31 -17 -10 -19
-8 -19 19 0 33 24 42 32 12z m36 -1 c-13 -21 -28 -19 -28 5 0 8 9 14 20 14 17
0 19 -3 8 -19z m272 9 c0 -5 -2 -10 -4 -10 -3 0 -8 5 -11 10 -3 6 -1 10 4 10
6 0 11 -4 11 -10z m37 -27 c-7 -39 -29 -69 -45 -59 -14 8 20 96 37 96 10 0 12
-9 8 -37z m48 0 c-7 -41 -41 -103 -55 -103 -19 0 -19 19 0 56 11 21 20 46 20
54 0 21 9 30 28 30 11 0 13 -8 7 -37z m-270 7 c3 -5 1 -10 -4 -10 -6 0 -11 5
-11 10 0 6 2 10 4 10 3 0 8 -4 11 -10z m172 -25 c-4 -8 -11 -15 -17 -15 -14 0
-13 27 3 33 16 6 21 1 14 -18z m-121 0 c4 -8 15 -15 26 -15 10 0 16 -5 13 -10
-4 -7 -13 -7 -26 0 -10 6 -19 8 -19 5 0 -3 -9 -1 -20 5 -11 6 -18 15 -15 21 9
14 35 11 41 -6z m-42 -21 c9 -3 16 -15 16 -25 0 -16 -3 -17 -25 -7 -26 11 -30
19 -18 31 8 8 8 8 27 1z m-110 -23 c21 -24 12 -49 -10 -30 -8 7 -20 21 -25 31
-13 25 12 24 35 -1z m264 -26 c-3 -3 -9 2 -12 12 -6 14 -5 15 5 6 7 -7 10 -15
7 -18z m-110 -29 c4 -20 -7 -20 -58 0 -40 16 -50 29 -28 36 20 7 83 -19 86
-36z m-30 -21 c38 -8 44 -35 7 -35 -27 0 -99 33 -110 50 -14 23 8 30 38 11 18
-10 47 -22 65 -26z m177 24 c0 -17 -80 -59 -112 -59 -24 0 -34 29 -10 31 10 0
10 2 0 6 -7 2 -13 12 -13 21 0 13 4 11 16 -6 20 -29 43 -28 73 4 25 26 46 27
46 3z"/>
<path d="M1830 2242 c0 -4 14 -21 30 -37 31 -30 38 -28 20 5 -11 21 -50 46
-50 32z"/>
<path d="M1431 2214 c-22 -28 -28 -50 -11 -39 5 3 19 19 30 35 26 37 9 40 -19
4z"/>
<path d="M1900 2197 c16 -45 12 -50 -20 -27 -39 28 -30 1 10 -29 l30 -22 0 34
c0 18 -7 42 -15 53 -14 18 -14 17 -5 -9z"/>
<path d="M1392 2198 c-7 -7 -12 -30 -12 -52 l0 -40 35 34 c19 19 35 38 35 44
0 5 -10 0 -23 -12 -31 -29 -37 -28 -27 8 10 34 9 35 -8 18z"/>
<path d="M1942 2128 c-1 -21 -6 -38 -12 -38 -5 0 -10 3 -10 8 0 4 -10 13 -22
21 l-22 14 18 -29 c46 -71 44 -70 51 -42 4 14 5 42 2 64 l-4 39 -1 -37z"/>
<path d="M1350 2113 c0 -34 10 -73 19 -73 9 0 54 81 48 86 -3 3 -14 -7 -26
-22 l-21 -27 0 26 c0 14 -4 29 -10 32 -6 4 -10 -6 -10 -22z"/>
<path d="M1951 2035 l-13 -38 -14 33 c-20 47 -24 34 -10 -29 l12 -55 23 37
c13 21 21 48 19 64 -3 25 -4 25 -17 -12z"/>
<path d="M1341 2030 c-1 -30 28 -76 39 -63 5 4 11 26 14 48 5 38 5 38 -6 13
-7 -16 -15 -28 -18 -28 -3 0 -11 12 -17 28 l-11 27 -1 -25z"/>
<path d="M1401 1952 l-1 -42 -30 32 c-23 26 -29 29 -30 15 0 -18 39 -60 71
-78 15 -7 16 -4 9 29 -5 20 -10 48 -13 62 -3 16 -5 9 -6 -18z"/>
<path d="M1888 1932 c-3 -26 -3 -48 -2 -50 1 -2 13 4 26 12 14 9 28 13 33 9 4
-5 5 -3 2 3 -4 6 0 20 8 30 28 37 15 49 -15 14 l-30 -34 0 26 c0 47 -18 39
-22 -10z"/>
<path d="M1436 1905 c3 -16 7 -36 10 -42 5 -19 -9 -16 -50 12 -33 22 -35 23
-26 5 16 -30 57 -53 98 -55 20 -2 38 -8 40 -14 3 -10 -32 -8 -78 5 -9 3 -8 -2
4 -11 20 -15 111 -21 119 -7 3 4 -12 20 -34 35 -25 18 -37 23 -33 13 3 -9 3
-16 0 -16 -4 0 -17 24 -31 53 -17 37 -23 43 -19 22z"/>
<path d="M1841 1869 c-17 -43 -18 -50 -5 -45 9 3 22 6 29 6 15 0 78 50 72 57
-3 2 -21 -6 -40 -17 l-36 -21 6 35 c8 50 -1 45 -26 -15z"/>
<path d="M1788 1835 c-20 -18 -34 -36 -30 -39 11 -11 97 -5 115 8 15 12 12 13
-29 8 l-46 -5 16 32 c9 17 15 31 14 31 -2 0 -19 -16 -40 -35z"/>
<path d="M1561 1785 c-18 -8 -47 -15 -65 -15 -24 0 -27 -3 -16 -10 24 -15 62
-12 102 10 21 11 44 17 53 14 8 -3 15 -1 15 5 0 15 -48 13 -89 -4z"/>
<path d="M1661 1793 c1 -13 69 -66 69 -54 0 6 -11 18 -25 27 -38 25 -23 28 21
5 42 -23 71 -26 94 -11 12 8 9 10 -11 10 -15 0 -43 7 -62 15 -38 16 -87 20
-86 8z"/>
<path d="M1591 1759 c-13 -11 -21 -23 -17 -26 4 -4 19 5 34 20 31 31 19 36
-17 6z"/>
</g>
</svg>
