<?xml version="1.0" standalone="no"?>
<!DOCTYPE svg PUBLIC "-//W3C//DTD SVG 20010904//EN"
 "http://www.w3.org/TR/2001/REC-SVG-20010904/DTD/svg10.dtd">
<svg version="1.0" xmlns="http://www.w3.org/2000/svg"
 width="80.000000pt" height="70.000000pt" viewBox="0 0 80.000000 70.000000"
 preserveAspectRatio="xMidYMid meet">

<g transform="translate(0.000000,70.000000) scale(0.100000,-0.100000)"
fill="#000000" stroke="none">
<path d="M555 597 c-17 -14 -30 -39 -36 -67 -11 -62 -11 -120 1 -120 6 0 10 9
10 20 0 22 16 27 23 8 6 -18 -11 -48 -28 -48 -7 0 -23 -12 -34 -26 -17 -21
-21 -40 -19 -88 l1 -61 6 61 c7 68 22 94 56 94 14 0 25 7 28 19 6 24 75 27 84
5 9 -25 -27 -56 -57 -49 -24 6 -24 5 -8 -11 17 -17 19 -17 47 10 25 24 33 27
58 19 26 -9 28 -14 31 -69 4 -79 22 -96 22 -21 0 49 -4 62 -26 84 -24 24 -25
26 -10 58 15 32 15 37 -9 102 -36 101 -84 129 -140 80z m105 -16 c5 -11 10
-27 10 -37 0 -17 -18 -17 -75 1 -11 3 -6 -1 10 -9 17 -8 38 -17 48 -20 23 -7
22 -37 -4 -70 -45 -58 -109 -11 -109 81 0 60 12 73 67 73 32 0 45 -5 53 -19z
m40 -130 c0 -33 -11 -51 -31 -51 -22 0 -23 9 -7 45 13 29 38 33 38 6z"/>
<path d="M535 278 c-4 -10 -4 -26 0 -35 8 -17 8 -17 12 0 3 9 3 25 0 35 -4 16
-4 16 -12 0z"/>
</g>
</svg>
